<svg id="Calque_1" data-name="Calque 1" xmlns="http://www.w3.org/2000/svg" viewBox="0 0 175 175.83"><defs><style>.cls-1,.cls-3,.cls-6{fill:#9d7d57;}.cls-2{fill:#3e2a27;stroke:#3e2a27;}.cls-2,.cls-3,.cls-4,.cls-5,.cls-6,.cls-7{stroke-miterlimit:10;}.cls-3,.cls-6{stroke:#9d7d57;}.cls-4{fill:#fff;stroke:#fff;}.cls-5{stroke:#000;}.cls-6{stroke-linecap:round;stroke-width:8px;}.cls-7{fill:#3f6;stroke:#3f6;}</style></defs><title>ourshead</title><circle class="cls-1" cx="87.5" cy="87.5" r="87.5"/><path class="cls-2" d="M448.9,444.51a87.37,87.37,0,0,0,64.19,28c27.6,0,51.22-13.14,67.27-33.09-8-28.69-33.38-49.36-64.66-49.36A68.18,68.18,0,0,0,448.9,444.51Z" transform="translate(-424.96 -297.16)"/><rect class="cls-3" x="430.18" y="311.86" width="43.75" height="31.79" rx="15.75" transform="translate(-233.05 -463.48) rotate(26.29)"/><rect class="cls-3" x="551.44" y="311.86" width="43.75" height="31.79" rx="15.75" transform="translate(807.52 70.53) rotate(153.71)"/><ellipse class="cls-3" cx="89.66" cy="104.39" rx="9.34" ry="6.37"/><path id="fondoeil" class="cls-4" d="M532.05,384.44l24.63,1.38a9.25,9.25,0,0,0,9.77-9.24v-9.84a9.26,9.26,0,0,0-10-9.22l-24.63,2.06a9.27,9.27,0,0,0-8.48,9.23v6.39A9.26,9.26,0,0,0,532.05,384.44Z" transform="translate(-424.96 -297.16)"/><ellipse class="cls-5" cx="114.84" cy="74.5" rx="7.24" ry="8.24"/><path id="fondoeil-2" data-name="fondoeil" class="cls-4" d="M493.15,384.44l-24.62,1.38a9.26,9.26,0,0,1-9.78-9.24v-9.84a9.26,9.26,0,0,1,10-9.22l24.63,2.06a9.26,9.26,0,0,1,8.48,9.23v6.39A9.25,9.25,0,0,1,493.15,384.44Z" transform="translate(-424.96 -297.16)"/><ellipse class="cls-5" cx="60.44" cy="74.5" rx="7.24" ry="8.24"/><path class="cls-6" d="M523.31,432h0a12.29,12.29,0,0,1-17.37.44" transform="translate(-424.96 -297.16)"/><ellipse class="cls-3" cx="89.54" cy="103.37" rx="9.34" ry="6.37"/><path class="cls-6" d="M523.19,430.94h0a12.29,12.29,0,0,1-17.37.44" transform="translate(-424.96 -297.16)"/><path class="cls-7" d="M564.49,315.24H460.68a88.11,88.11,0,0,0-21.91,23.43v.47H586.69A88,88,0,0,0,564.49,315.24Z" transform="translate(-424.96 -297.16)"/></svg>